<svg version="1.1" id="Capa_1" xmlns="http://www.w3.org/2000/svg" xmlns:xlink="http://www.w3.org/1999/xlink" x="0px" y="0px" viewBox="673.6180419921875 335.4617004394531 567.15185546875 403.5322570800781" style="enable-background:new 0 0 1920 1080;" xml:space="preserve">
<style type="text/css">
	.st0{fill:#9146ff;}
	.st1{fill:#ffffff}
</style>
<g>
	<g>
		<path class="st0" d="M1198.16,618.62c0,2.27,0.15,4.3-0.03,6.32c-0.62,7.11-12.33,11.49-21.18,7.65c-4.73-2.05-7.87-5.1-7.81-9.43
			c0.23-15.6,0.09-31.2,0.09-46.8c0-13.98-0.02-27.95-0.01-41.93c0.01-9.17,0.79-18.37-0.07-27.5
			c-2.29-24.17-12.43-46.89-30.1-68.02c-3.84-4.59-8.37-8.92-12.45-13.42c-1.29-1.42-2.76-1.86-5.28-1.82
			c-8.59,0.14-15.9-1.75-21.92-6.15c-29.98-21.9-66.01-36.84-110.04-42.02c-48.39-5.7-93.1,0.99-134.21,18.91
			c-14.69,6.4-27.74,14.11-39.39,22.87c-6.2,4.66-14.04,6.41-22.96,6.4c-2.05,0-3.27,0.31-4.46,1.46
			c-22.54,21.7-36.15,45.7-41.55,71.9c-2.84,13.76-1.66,27.54-1.53,41.34c0.25,28.28,0.1,56.55,0.07,84.83
			c-0.01,6.75-6.31,11.03-15.59,10.72c-6.99-0.23-12.77-3.99-13.27-8.71c-0.18-1.7-0.17-3.41-0.08-5.12
			c0.07-1.27-0.73-1.7-2.54-1.75c-21.37-0.56-40.71-12.89-40.17-30.3c0.52-16.73,0.67-33.49-0.04-50.21
			c-0.73-16.95,16.94-30.75,43.2-31.22c0.34-2.25,0.68-4.54,1.04-6.83c4.97-31.56,20.83-60.38,48.08-86.32
			c1.36-1.29,1.75-2.39,1.14-4c-2.39-6.31-0.63-12.18,5.79-17.09c20.15-15.39,43.69-27.97,70.62-37.63
			c22.74-8.15,46.75-13.76,72.2-16.78c26.83-3.19,53.63-3.36,80.4-0.38c46.41,5.18,87.19,18.51,122.46,39.38
			c7.69,4.55,14.85,9.53,21.95,14.51c7.43,5.22,9.47,11.48,6.87,18.5c-0.34,0.93,0.04,2.27,0.86,3.05
			c14.99,14.1,26.61,29.37,35,45.74c7.65,14.94,12.48,30.29,14.04,46.07c0.15,1.51,0.96,1.84,3.04,1.95
			c23.87,1.17,40.42,13.21,40.43,29.34c0.01,17.63-0.02,35.27,0.01,52.9c0.03,15.97-16.36,27.99-40.06,29.35
			C1200.02,618.4,1199.33,618.5,1198.16,618.62z"></path>
		<path class="st0" d="M752.78,562.34c0-17.46-0.02-34.93,0.02-52.39c0.01-4.88,5-8.95,11.99-10c6.61-0.99,13.69,1.18,16.67,5.4
			c1.05,1.48,1.63,3.27,1.63,4.92c0.09,34.94,0.08,69.89,0.05,104.83c0,5.78-6.61,10.25-15.05,10.33
			c-8.37,0.08-15.29-4.59-15.3-10.43C752.75,597.44,752.77,579.89,752.78,562.34z"></path>
		<path class="st0" d="M1161.81,562.49c0,17.31,0,34.61,0,51.92c0,6.32-6.46,10.99-15.17,10.99c-8.83,0-15.22-4.58-15.22-10.95
			c0-34.61,0-69.23,0.02-103.84c0-6.38,6.37-10.86,15.33-10.82c8.66,0.04,15.03,4.59,15.04,10.81
			C1161.82,527.89,1161.81,545.19,1161.81,562.49z"></path>
	</g>
	<g>
		<g>
			<path class="st1" d="M782.32,681.5c0.8-8.06,0.67-15.63,2.46-22.71c2.92-11.54,7.31-22.7,10.64-34.15c1.26-4.34,2.48-9.28,1.66-13.54
				c-4.88-25.23-8.96-50.54-7.76-76.32c0.43-9.26,2.23-18.5,3.95-27.64c1.26-6.69,6.13-10.19,12.67-8.64
				c11.12,2.63,22.83,4.66,32.83,9.79c18.03,9.26,35.11,20.41,52.27,31.27c4.24,2.68,7.45,3.99,12.71,2.48
				c35.03-10.05,71.9-10.54,106.84-0.2c5.39,1.59,8.9,1.06,13.15-2.19c22.02-16.81,45.39-31.27,72.37-38.84
				c21.01-5.9,25.43-3,28.32,18.7c4.08,30.63-0.49,60.7-6.55,90.6c-1.09,5.4-0.93,9.93,1.68,15.05
				c7.49,14.66,11.62,30.37,12.27,46.91c0.11,2.84,0.26,5.68,0.44,9.47c4.92-0.4,9.39-1.27,13.74-0.9c5.66,0.49,7.1,7.68,0.78,10.23
				c-2.03,0.82-4.69,0.9-7.06,0.77c-7.43-0.39-10.47,3.06-9.31,11.37c5.49,0.53,11.45,0.6,17.13,1.89c2.6,0.59,6.4,3.42,6.61,5.53
				c0.47,4.75-3.69,5.3-7.61,4.92c-4.05-0.39-8.17-0.48-12.15-1.25c-6.22-1.2-9.71,0.74-9.97,8.36c4.89,1.32,10.41,1.94,15.14,4.34
				c6.35,3.23,3.47,10.42-2.53,9.88c-3.2-0.29-6.49-1.45-9.73-2.29c-4.33-1.13-8.8-3.29-11.2,3.19c-0.36,0.98-3.34,1.54-5.03,1.39
				c-28.08-2.43-55.53-7.62-81.34-19.48c-44.35-20.39-66.23-56.18-70.75-103.76c-0.24-2.49-0.39-4.98-1.95-7.49
				c-1.15,7.86-2.06,15.77-3.5,23.58c-7.95,43.4-33.02,72.91-73.37,89.89c-24.32,10.23-49.91,15.04-76.06,17.22
				c-1.86,0.15-5.06-0.56-5.54-1.73c-2.26-5.51-5.92-4.21-9.99-3.03c-4.13,1.2-8.35,2.59-12.57,2.79c-5.56,0.27-8.44-6.92-2.24-9.69
				c5.19-2.31,10.96-3.14,16.65-4.66c-0.03-6.94-2.77-9.82-9.64-8.51c-4.22,0.8-8.67,1.69-12.84,1.05
				c-6.12-0.94-7.56-8.13-0.75-10.21c5.43-1.65,11.36-1.25,17.97-1.84l-1.58-10.4c-5.59-0.6-10.84-1.08-15.95-1.95
				c-5.81-0.99-5.81-9.62,1.12-10.1C773.17,680.34,777.68,681.13,782.32,681.5z M1037.42,655.12c-6.78,2.19-12.17,7.64-14.28,14.44
				c-4.54,14.62,6.89,28.61,20.94,28.63c12.2,0.02,22.27-10.33,21.96-22.58C1065.69,661.48,1051.83,650.47,1037.42,655.12z
				 M871.09,654.07c-11.94-0.13-21.93,9.64-22.14,21.66c-0.21,12.03,9.36,22.08,21.36,22.46c12.09,0.38,22.52-9.82,22.54-22.04
				C892.87,664.17,883.04,654.2,871.09,654.07z"></path>
			<path class="st1" d="M957.39,695.24c3.31,0.28,6.46,0.29,9.5,0.84c9.33,1.69,10.86,6.9,6.72,15.51c-7.49,15.56-21.87,19.88-32.71-0.76
				c-4.12-7.84-1.95-12.92,6.7-14.64C950.86,695.55,954.24,695.53,957.39,695.24z"></path>
		</g>
	</g>
</g>
</svg>
